<svg xmlns="http://www.w3.org/2000/svg" viewBox="0 0 287.79 292.43"><defs><style>.a,.d{fill:#ff008c;}.a,.b,.c,.d{stroke:#ff008c;stroke-miterlimit:10;}.a{stroke-width:4px;}.b{fill:#fcc;stroke-width:6px;}.c{fill:#fff;stroke-width:5px;}</style></defs><path class="a" d="M627.72,383.59V363.86h7.5v19.73h45.63V390H635.22V413.7h55v6.44H570.26V413.7h57.46V390h-33.4A132.24,132.24,0,0,1,580,406.34l-6.45-4.21a113.18,113.18,0,0,0,27.62-36.69l6.44,2.5a107.07,107.07,0,0,1-8.68,15.65Zm49.18,98.23H583V436.06H676.9Zm-7.62-39.19H590.51v32.61h78.77Z" transform="translate(-527.22 -250.58)"/><path class="a" d="M751.86,381.88c3.94-11.71,4.73-15,5.39-18.15l7.89,1c-1.71,4.87-4.74,13.55-6.18,17.1h54V482H710.83V381.88Zm-33.54,44.31h87.06V388.45H718.32Zm0,6.45v42.73h87.06V432.64Z" transform="translate(-527.22 -250.58)"/><path class="b" d="M623.25,506.07v2.56H611v9.09a27.32,27.32,0,0,1,.74,3.39,24.67,24.67,0,0,1,.27,3.67c0,9.77-6.83,14.13-18.34,14.63l-.83-2.7c15.55.18,16.7-8.17,17-11.75a8.45,8.45,0,0,1-8.35,5.6c-5.23,0-8.53-3.95-8.53-8.85,0-4.5,2.8-9.36,9.45-9.36,3.8,0,5.32,1.7,5.91,2.34l0-6.06H584.77v-2.56h23.48l0-5.6H611v5.6Zm-14.86,13.57c-.6-2.11-2-4.72-6-4.72-3.21,0-6.65,1.88-6.65,6.56,0,2.75,1.46,6.56,6.05,6.56a6.26,6.26,0,0,0,6.56-6.2Z" transform="translate(-527.22 -250.58)"/><path class="b" d="M659.91,504.6c-1,.78-1.29,1-3.76,3-7.89,6.43-9,7.34-10.83,8.86a23.45,23.45,0,0,1,9.63-2c9.54,0,12.11,6,12.11,11,0,9-8,13.4-15.82,13.4-6.61,0-11.56-2.94-11.56-7.39,0-3.67,3.35-6,7.29-6,2.75,0,8.76,1,10.87,9.68,1.75-.83,6.47-3,6.47-9.68,0-8.35-7.25-8.72-9.91-8.72-8.8,0-15.23,5-21.14,10.51l-1.65-2.3c2.06-1.6,13.34-10.59,24.21-20.41-6.37.51-10.45.74-19.76.88V502.9c9-.09,14.35-.14,23.85-.87Zm-6.33,26.83a8.36,8.36,0,0,0-6.84-3.53c-3.07,0-4.63,1.79-4.63,3.58,0,3.12,4.36,5.18,9.31,5.18a15.29,15.29,0,0,0,4-.51A10,10,0,0,0,653.58,531.43Z" transform="translate(-527.22 -250.58)"/><path class="b" d="M680.78,536.93c12.25-2.47,18.21-8.21,19.64-24.53H686.29a25.31,25.31,0,0,1-8.3,10.32l-1.93-2.07c4.08-2.93,9-8,10.82-19.81l3,.36a56.26,56.26,0,0,1-2.52,8.58h27.52v2.62H703.26c-1.24,14.35-5.55,24.08-21.51,27.15Zm26.42-39.35a48,48,0,0,1,3.44,9.17l-2.7.92a44,44,0,0,0-3.17-9.13Zm6.79-.69a44.08,44.08,0,0,1,3.49,9.18l-2.71.91a42.52,42.52,0,0,0-3.16-9.13Z" transform="translate(-527.22 -250.58)"/><path class="b" d="M761.61,518.59v3H722.07v-3Z" transform="translate(-527.22 -250.58)"/><path class="b" d="M768.54,534.41c.6,0,3.4-.09,4-.09a230.43,230.43,0,0,0,10.78-32.93l3.07.55c-3.85,14.86-6.74,21.78-11,32.29,5.6-.19,13.81-.41,25.83-1.84a91.53,91.53,0,0,0-8.67-13.8l2.29-1.29a90.79,90.79,0,0,1,12,20.32l-2.75,1.29a43,43,0,0,0-1.79-4.31,320.82,320.82,0,0,1-33.62,2.79Z" transform="translate(-527.22 -250.58)"/><path class="c" d="M530.57,332.42c-7-27.36,29.89-60.38,82.34-73.74s100.62-2,107.59,25.37c4.36,17.1-23.9,46.18-48.76,55.58-44.26,16.73,12.61,37.67-12.27,33.07-16.42-3-24.11-13.47-39.09-11.22C558.51,370.77,535.34,351.17,530.57,332.42Z" transform="translate(-527.22 -250.58)"/><path class="d" d="M576.23,304.06l-16,4.52,3.63,12.89a14,14,0,0,1,6.23-3.55c7.4-2.09,13.73,1.26,15.57,7.77s-1.71,13.05-10.35,15.49a23,23,0,0,1-11.35.26l.12-2.93a18.44,18.44,0,0,0,10.28,0c7.39-2.09,9.62-7.26,8.28-12-1.46-5.18-6.34-7.44-11.93-5.87a10.86,10.86,0,0,0-6,4l-2.77.78-5.29-18.75,18.8-5.31Z" transform="translate(-527.22 -250.58)"/><path class="d" d="M617.48,316.11a41.31,41.31,0,0,1-6.86-6.1l6.35,22.5-2.45.69-6.12-21.71c-.12,1.18-1.27,8.93-3.77,13.68l-2.09-1.91c3.36-6.68,4.39-17,4.11-18l-8,2.25-.63-2.22,8-2.25-2.26-8a66.15,66.15,0,0,1-7.12,3.05l-1.22-2.05c6.1-2.22,11.86-5.34,14.22-7.2l1.66,1.82a32.71,32.71,0,0,1-5.22,3.22l2.38,8.46,5.92-1.67.62,2.22-5.91,1.67.29,1a46.76,46.76,0,0,0,9.1,7.86Zm-1.54-6.7a42.06,42.06,0,0,0,.72-17.26l2.61-.09c.88,7.68.74,12.66-.37,17.76Zm4.86,19.68c13.05-6.78,16.77-17.45,18.19-24.44l2.57.62c-2.76,10.56-7.31,19.17-19.18,25.72Zm3.84-44.53,7,24.95c.56,2,.69,3.14-1.94,3.89L624.19,315,623,312.41l5.22-1.32c1-.24,1.12-.62.72-2l-6.72-23.79Zm7.88,2.81c2.79,4.95,6.79,10.11,10.34,12.8l-1.43,2.35c-3.28-2.62-6.82-6.86-11-13.8Z" transform="translate(-527.22 -250.58)"/><path class="d" d="M682.74,276.24c-2.5.51-3.82.78-5.2,1.17a10.64,10.64,0,0,0-4.1,1.76c-6.61,4.66-13.65,14.53-11.28,22.93,1.51,5.36,5.77,10.2,24.66,4.87l.11,3.21c-10.2,2.38-24.25,4.9-27.59-6.93-2.88-10.21,5.53-19.47,9.68-23.48-4,1.22-19.21,6.51-23.78,8.35l-1.17-2.91c2-.57,8-2.62,13-4.26,12.16-4.08,15.35-5,24.87-7.66Zm-7.29,8.45a44.91,44.91,0,0,1,7.37,7.19l-2,2.22a45.69,45.69,0,0,0-7.22-7.39Zm5.55-4.36a44.75,44.75,0,0,1,7.48,7.06l-2,2.25a43.11,43.11,0,0,0-7.33-7.26Z" transform="translate(-527.22 -250.58)"/></svg>